<?xml version="1.0" encoding="UTF-8" standalone="no"?>
<!-- Created with Inkscape (http://www.inkscape.org/) -->

<svg
   xmlns:dc="http://purl.org/dc/elements/1.1/"
   xmlns:cc="http://creativecommons.org/ns#"
   xmlns:rdf="http://www.w3.org/1999/02/22-rdf-syntax-ns#"
   xmlns:svg="http://www.w3.org/2000/svg"
   xmlns="http://www.w3.org/2000/svg"
   xmlns:sodipodi="http://sodipodi.sourceforge.net/DTD/sodipodi-0.dtd"
   xmlns:inkscape="http://www.inkscape.org/namespaces/inkscape"
   id="svg3355"
   version="1.1"
   inkscape:version="0.91 r13725"
   xml:space="preserve"
   width="720"
   height="495"
   viewBox="0 0 720 495"
   sodipodi:docname="TE vs Timeseries [historylength=2] [22 steps].svg"><metadata
     id="metadata3361"><rdf:RDF><cc:Work
         rdf:about=""><dc:format>image/svg+xml</dc:format><dc:type
           rdf:resource="http://purl.org/dc/dcmitype/StillImage" /><dc:title></dc:title></cc:Work></rdf:RDF></metadata><defs
     id="defs3359"><clipPath
       clipPathUnits="userSpaceOnUse"
       id="clipPath3373"><path
         d="m 72,49.5 446.4,0 0,306.9 -446.4,0 0,-306.9 z"
         id="path3375"
         inkscape:connector-curvature="0" /></clipPath><clipPath
       clipPathUnits="userSpaceOnUse"
       id="clipPath3393"><path
         d="m 72,49.5 446.4,0 0,306.9 -446.4,0 0,-306.9 z"
         id="path3395"
         inkscape:connector-curvature="0" /></clipPath><clipPath
       clipPathUnits="userSpaceOnUse"
       id="clipPath3413"><path
         d="m 72,49.5 446.4,0 0,306.9 -446.4,0 0,-306.9 z"
         id="path3415"
         inkscape:connector-curvature="0" /></clipPath><clipPath
       clipPathUnits="userSpaceOnUse"
       id="clipPath3433"><path
         d="m 72,49.5 446.4,0 0,306.9 -446.4,0 0,-306.9 z"
         id="path3435"
         inkscape:connector-curvature="0" /></clipPath><clipPath
       clipPathUnits="userSpaceOnUse"
       id="clipPath3453"><path
         d="m 72,49.5 446.4,0 0,306.9 -446.4,0 0,-306.9 z"
         id="path3455"
         inkscape:connector-curvature="0" /></clipPath><clipPath
       clipPathUnits="userSpaceOnUse"
       id="clipPath3477"><path
         d="m 72,49.5 446.4,0 0,306.9 -446.4,0 0,-306.9 z"
         id="path3479"
         inkscape:connector-curvature="0" /></clipPath><clipPath
       clipPathUnits="userSpaceOnUse"
       id="clipPath3497"><path
         d="m 72,49.5 446.4,0 0,306.9 -446.4,0 0,-306.9 z"
         id="path3499"
         inkscape:connector-curvature="0" /></clipPath><clipPath
       clipPathUnits="userSpaceOnUse"
       id="clipPath3517"><path
         d="m 72,49.5 446.4,0 0,306.9 -446.4,0 0,-306.9 z"
         id="path3519"
         inkscape:connector-curvature="0" /></clipPath><clipPath
       clipPathUnits="userSpaceOnUse"
       id="clipPath3537"><path
         d="m 72,49.5 446.4,0 0,306.9 -446.4,0 0,-306.9 z"
         id="path3539"
         inkscape:connector-curvature="0" /></clipPath><clipPath
       clipPathUnits="userSpaceOnUse"
       id="clipPath3557"><path
         d="m 72,49.5 446.4,0 0,306.9 -446.4,0 0,-306.9 z"
         id="path3559"
         inkscape:connector-curvature="0" /></clipPath><clipPath
       clipPathUnits="userSpaceOnUse"
       id="clipPath3577"><path
         d="m 72,49.5 446.4,0 0,306.9 -446.4,0 0,-306.9 z"
         id="path3579"
         inkscape:connector-curvature="0" /></clipPath><clipPath
       clipPathUnits="userSpaceOnUse"
       id="clipPath3601"><path
         d="m 72,49.5 446.4,0 0,306.9 -446.4,0 0,-306.9 z"
         id="path3603"
         inkscape:connector-curvature="0" /></clipPath><clipPath
       clipPathUnits="userSpaceOnUse"
       id="clipPath3611"><path
         d="m 72,49.5 446.4,0 0,306.9 -446.4,0 0,-306.9 z"
         id="path3613"
         inkscape:connector-curvature="0" /></clipPath><clipPath
       clipPathUnits="userSpaceOnUse"
       id="clipPath3621"><path
         d="m 72,49.5 446.4,0 0,306.9 -446.4,0 0,-306.9 z"
         id="path3623"
         inkscape:connector-curvature="0" /></clipPath></defs><sodipodi:namedview
     pagecolor="#ffffff"
     bordercolor="#666666"
     borderopacity="1"
     objecttolerance="10"
     gridtolerance="10"
     guidetolerance="10"
     inkscape:pageopacity="0"
     inkscape:pageshadow="2"
     inkscape:window-width="1197"
     inkscape:window-height="797"
     id="namedview3357"
     showgrid="false"
     inkscape:zoom="1.3212121"
     inkscape:cx="376.48532"
     inkscape:cy="260.80111"
     inkscape:window-x="0"
     inkscape:window-y="0"
     inkscape:window-maximized="0"
     inkscape:current-layer="g3363" /><g
     id="g3363"
     inkscape:groupmode="layer"
     inkscape:label="TE vs Timeseries [historylength=2] [22 steps]"
     transform="matrix(1.25,0,0,-1.25,0,495)"><path
       d="M 0,0 576,0 576,396 0,396 0,0 Z"
       style="fill:#ffffff;fill-opacity:1;fill-rule:nonzero;stroke:none"
       id="path3365"
       inkscape:connector-curvature="0" /><path
       d="m 72,49.5 446.4,0 0,306.9 -446.4,0 0,-306.9 z"
       style="fill:#eaeaf2;fill-opacity:1;fill-rule:nonzero;stroke:none"
       id="path3367"
       inkscape:connector-curvature="0" /><g
       id="g3369"><g
         id="g3371"
         clip-path="url(#clipPath3373)"><path
           d="m 72,49.5 0,306.9"
           style="fill:none;stroke:#ffffff;stroke-width:1;stroke-linecap:round;stroke-linejoin:round;stroke-miterlimit:10;stroke-dasharray:none;stroke-opacity:1"
           id="path3377"
           inkscape:connector-curvature="0" /></g></g><g
       id="g3379"><path
         d="m 72,49.5 0,0"
         style="fill:#262626;fill-opacity:1;fill-rule:nonzero;stroke:#262626;stroke-width:1;stroke-linecap:butt;stroke-linejoin:round;stroke-miterlimit:10;stroke-dasharray:none;stroke-opacity:1"
         id="path3381"
         inkscape:connector-curvature="0" /><path
         d="m 72,356.4 0,0"
         style="fill:#262626;fill-opacity:1;fill-rule:nonzero;stroke:#262626;stroke-width:1;stroke-linecap:butt;stroke-linejoin:round;stroke-miterlimit:10;stroke-dasharray:none;stroke-opacity:1"
         id="path3383"
         inkscape:connector-curvature="0" /><text
         transform="matrix(1,0,0,-1,69.21875,35.34375)"
         style="font-variant:normal;font-weight:normal;font-size:10px;font-family:Arial;-inkscape-font-specification:ArialMT;writing-mode:lr-tb;fill:#262626;fill-opacity:1;fill-rule:nonzero;stroke:none"
         id="text3385"><tspan
           x="0"
           y="0"
           id="tspan3387">0</tspan></text>
</g><g
       id="g3389"><g
         id="g3391"
         clip-path="url(#clipPath3393)"><path
           d="m 162.18182,49.5 0,306.9"
           style="fill:none;stroke:#ffffff;stroke-width:1;stroke-linecap:round;stroke-linejoin:round;stroke-miterlimit:10;stroke-dasharray:none;stroke-opacity:1"
           id="path3397"
           inkscape:connector-curvature="0" /></g></g><g
       id="g3399"><path
         d="m 162.18182,49.5 0,0"
         style="fill:#262626;fill-opacity:1;fill-rule:nonzero;stroke:#262626;stroke-width:1;stroke-linecap:butt;stroke-linejoin:round;stroke-miterlimit:10;stroke-dasharray:none;stroke-opacity:1"
         id="path3401"
         inkscape:connector-curvature="0" /><path
         d="m 162.18182,356.4 0,0"
         style="fill:#262626;fill-opacity:1;fill-rule:nonzero;stroke:#262626;stroke-width:1;stroke-linecap:butt;stroke-linejoin:round;stroke-miterlimit:10;stroke-dasharray:none;stroke-opacity:1"
         id="path3403"
         inkscape:connector-curvature="0" /><text
         transform="matrix(1,0,0,-1,156.61932,35.34375)"
         style="font-variant:normal;font-weight:normal;font-size:10px;font-family:Arial;-inkscape-font-specification:ArialMT;writing-mode:lr-tb;fill:#262626;fill-opacity:1;fill-rule:nonzero;stroke:none"
         id="text3405"><tspan
           x="0 5.5599999"
           y="0"
           sodipodi:role="line"
           id="tspan3407">20</tspan></text>
</g><g
       id="g3409"><g
         id="g3411"
         clip-path="url(#clipPath3413)"><path
           d="m 252.36364,49.5 0,306.9"
           style="fill:none;stroke:#ffffff;stroke-width:1;stroke-linecap:round;stroke-linejoin:round;stroke-miterlimit:10;stroke-dasharray:none;stroke-opacity:1"
           id="path3417"
           inkscape:connector-curvature="0" /></g></g><g
       id="g3419"><path
         d="m 252.36364,49.5 0,0"
         style="fill:#262626;fill-opacity:1;fill-rule:nonzero;stroke:#262626;stroke-width:1;stroke-linecap:butt;stroke-linejoin:round;stroke-miterlimit:10;stroke-dasharray:none;stroke-opacity:1"
         id="path3421"
         inkscape:connector-curvature="0" /><path
         d="m 252.36364,356.4 0,0"
         style="fill:#262626;fill-opacity:1;fill-rule:nonzero;stroke:#262626;stroke-width:1;stroke-linecap:butt;stroke-linejoin:round;stroke-miterlimit:10;stroke-dasharray:none;stroke-opacity:1"
         id="path3423"
         inkscape:connector-curvature="0" /><text
         transform="matrix(1,0,0,-1,246.80114,35.34375)"
         style="font-variant:normal;font-weight:normal;font-size:10px;font-family:Arial;-inkscape-font-specification:ArialMT;writing-mode:lr-tb;fill:#262626;fill-opacity:1;fill-rule:nonzero;stroke:none"
         id="text3425"><tspan
           x="0 5.5599999"
           y="0"
           sodipodi:role="line"
           id="tspan3427">40</tspan></text>
</g><g
       id="g3429"><g
         id="g3431"
         clip-path="url(#clipPath3433)"><path
           d="m 342.54545,49.5 0,306.9"
           style="fill:none;stroke:#ffffff;stroke-width:1;stroke-linecap:round;stroke-linejoin:round;stroke-miterlimit:10;stroke-dasharray:none;stroke-opacity:1"
           id="path3437"
           inkscape:connector-curvature="0" /></g></g><g
       id="g3439"><path
         d="m 342.54545,49.5 0,0"
         style="fill:#262626;fill-opacity:1;fill-rule:nonzero;stroke:#262626;stroke-width:1;stroke-linecap:butt;stroke-linejoin:round;stroke-miterlimit:10;stroke-dasharray:none;stroke-opacity:1"
         id="path3441"
         inkscape:connector-curvature="0" /><path
         d="m 342.54545,356.4 0,0"
         style="fill:#262626;fill-opacity:1;fill-rule:nonzero;stroke:#262626;stroke-width:1;stroke-linecap:butt;stroke-linejoin:round;stroke-miterlimit:10;stroke-dasharray:none;stroke-opacity:1"
         id="path3443"
         inkscape:connector-curvature="0" /><text
         transform="matrix(1,0,0,-1,336.98295,35.34375)"
         style="font-variant:normal;font-weight:normal;font-size:10px;font-family:Arial;-inkscape-font-specification:ArialMT;writing-mode:lr-tb;fill:#262626;fill-opacity:1;fill-rule:nonzero;stroke:none"
         id="text3445"><tspan
           x="0 5.5599999"
           y="0"
           sodipodi:role="line"
           id="tspan3447">60</tspan></text>
</g><g
       id="g3449"><g
         id="g3451"
         clip-path="url(#clipPath3453)"><path
           d="m 432.72727,49.5 0,306.9"
           style="fill:none;stroke:#ffffff;stroke-width:1;stroke-linecap:round;stroke-linejoin:round;stroke-miterlimit:10;stroke-dasharray:none;stroke-opacity:1"
           id="path3457"
           inkscape:connector-curvature="0" /></g></g><g
       id="g3459"><path
         d="m 432.72727,49.5 0,0"
         style="fill:#262626;fill-opacity:1;fill-rule:nonzero;stroke:#262626;stroke-width:1;stroke-linecap:butt;stroke-linejoin:round;stroke-miterlimit:10;stroke-dasharray:none;stroke-opacity:1"
         id="path3461"
         inkscape:connector-curvature="0" /><path
         d="m 432.72727,356.4 0,0"
         style="fill:#262626;fill-opacity:1;fill-rule:nonzero;stroke:#262626;stroke-width:1;stroke-linecap:butt;stroke-linejoin:round;stroke-miterlimit:10;stroke-dasharray:none;stroke-opacity:1"
         id="path3463"
         inkscape:connector-curvature="0" /><text
         transform="matrix(1,0,0,-1,427.16477,35.34375)"
         style="font-variant:normal;font-weight:normal;font-size:10px;font-family:Arial;-inkscape-font-specification:ArialMT;writing-mode:lr-tb;fill:#262626;fill-opacity:1;fill-rule:nonzero;stroke:none"
         id="text3465"><tspan
           x="0 5.5599999"
           y="0"
           sodipodi:role="line"
           id="tspan3467">80</tspan></text>
<text
         transform="matrix(1,0,0,-1,282.35625,20.484375)"
         style="font-variant:normal;font-weight:normal;font-size:11px;font-family:Arial;-inkscape-font-specification:ArialMT;writing-mode:lr-tb;fill:#262626;fill-opacity:1;fill-rule:nonzero;stroke:none"
         id="text3469"><tspan
           x="0 7.9419999 14.058 20.174"
           y="0"
           sodipodi:role="line"
           id="tspan3471">Rank</tspan></text>
</g><g
       id="g3473"><g
         id="g3475"
         clip-path="url(#clipPath3477)"><path
           d="m 72,49.5 446.4,0"
           style="fill:none;stroke:#ffffff;stroke-width:1;stroke-linecap:round;stroke-linejoin:round;stroke-miterlimit:10;stroke-dasharray:none;stroke-opacity:1"
           id="path3481"
           inkscape:connector-curvature="0" /></g></g><g
       id="g3483"><path
         d="m 72,49.5 0,0"
         style="fill:#262626;fill-opacity:1;fill-rule:nonzero;stroke:#262626;stroke-width:1;stroke-linecap:butt;stroke-linejoin:round;stroke-miterlimit:10;stroke-dasharray:none;stroke-opacity:1"
         id="path3485"
         inkscape:connector-curvature="0" /><path
         d="m 518.4,49.5 0,0"
         style="fill:#262626;fill-opacity:1;fill-rule:nonzero;stroke:#262626;stroke-width:1;stroke-linecap:butt;stroke-linejoin:round;stroke-miterlimit:10;stroke-dasharray:none;stroke-opacity:1"
         id="path3487"
         inkscape:connector-curvature="0" /><text
         transform="matrix(1,0,0,-1,51.09375,46.914062)"
         style="font-variant:normal;font-weight:normal;font-size:10px;font-family:Arial;-inkscape-font-specification:ArialMT;writing-mode:lr-tb;fill:#262626;fill-opacity:1;fill-rule:nonzero;stroke:none"
         id="text3489"><tspan
           x="0 5.5599999 8.3400002"
           y="0"
           sodipodi:role="line"
           id="tspan3491">0.0</tspan></text>
</g><g
       id="g3493"><g
         id="g3495"
         clip-path="url(#clipPath3497)"><path
           d="m 72,110.88 446.4,0"
           style="fill:none;stroke:#ffffff;stroke-width:1;stroke-linecap:round;stroke-linejoin:round;stroke-miterlimit:10;stroke-dasharray:none;stroke-opacity:1"
           id="path3501"
           inkscape:connector-curvature="0" /></g></g><g
       id="g3503"><path
         d="m 72,110.88 0,0"
         style="fill:#262626;fill-opacity:1;fill-rule:nonzero;stroke:#262626;stroke-width:1;stroke-linecap:butt;stroke-linejoin:round;stroke-miterlimit:10;stroke-dasharray:none;stroke-opacity:1"
         id="path3505"
         inkscape:connector-curvature="0" /><path
         d="m 518.4,110.88 0,0"
         style="fill:#262626;fill-opacity:1;fill-rule:nonzero;stroke:#262626;stroke-width:1;stroke-linecap:butt;stroke-linejoin:round;stroke-miterlimit:10;stroke-dasharray:none;stroke-opacity:1"
         id="path3507"
         inkscape:connector-curvature="0" /><text
         transform="matrix(1,0,0,-1,51.09375,108.29406)"
         style="font-variant:normal;font-weight:normal;font-size:10px;font-family:Arial;-inkscape-font-specification:ArialMT;writing-mode:lr-tb;fill:#262626;fill-opacity:1;fill-rule:nonzero;stroke:none"
         id="text3509"><tspan
           x="0 5.5599999 8.3400002"
           y="0"
           sodipodi:role="line"
           id="tspan3511">0.2</tspan></text>
</g><g
       id="g3513"><g
         id="g3515"
         clip-path="url(#clipPath3517)"><path
           d="m 72,172.26 446.4,0"
           style="fill:none;stroke:#ffffff;stroke-width:1;stroke-linecap:round;stroke-linejoin:round;stroke-miterlimit:10;stroke-dasharray:none;stroke-opacity:1"
           id="path3521"
           inkscape:connector-curvature="0" /></g></g><g
       id="g3523"><path
         d="m 72,172.26 0,0"
         style="fill:#262626;fill-opacity:1;fill-rule:nonzero;stroke:#262626;stroke-width:1;stroke-linecap:butt;stroke-linejoin:round;stroke-miterlimit:10;stroke-dasharray:none;stroke-opacity:1"
         id="path3525"
         inkscape:connector-curvature="0" /><path
         d="m 518.4,172.26 0,0"
         style="fill:#262626;fill-opacity:1;fill-rule:nonzero;stroke:#262626;stroke-width:1;stroke-linecap:butt;stroke-linejoin:round;stroke-miterlimit:10;stroke-dasharray:none;stroke-opacity:1"
         id="path3527"
         inkscape:connector-curvature="0" /><text
         transform="matrix(1,0,0,-1,51.09375,169.67406)"
         style="font-variant:normal;font-weight:normal;font-size:10px;font-family:Arial;-inkscape-font-specification:ArialMT;writing-mode:lr-tb;fill:#262626;fill-opacity:1;fill-rule:nonzero;stroke:none"
         id="text3529"><tspan
           x="0 5.5599999 8.3400002"
           y="0"
           sodipodi:role="line"
           id="tspan3531">0.4</tspan></text>
</g><g
       id="g3533"><g
         id="g3535"
         clip-path="url(#clipPath3537)"><path
           d="m 72,233.64 446.4,0"
           style="fill:none;stroke:#ffffff;stroke-width:1;stroke-linecap:round;stroke-linejoin:round;stroke-miterlimit:10;stroke-dasharray:none;stroke-opacity:1"
           id="path3541"
           inkscape:connector-curvature="0" /></g></g><g
       id="g3543"><path
         d="m 72,233.64 0,0"
         style="fill:#262626;fill-opacity:1;fill-rule:nonzero;stroke:#262626;stroke-width:1;stroke-linecap:butt;stroke-linejoin:round;stroke-miterlimit:10;stroke-dasharray:none;stroke-opacity:1"
         id="path3545"
         inkscape:connector-curvature="0" /><path
         d="m 518.4,233.64 0,0"
         style="fill:#262626;fill-opacity:1;fill-rule:nonzero;stroke:#262626;stroke-width:1;stroke-linecap:butt;stroke-linejoin:round;stroke-miterlimit:10;stroke-dasharray:none;stroke-opacity:1"
         id="path3547"
         inkscape:connector-curvature="0" /><text
         transform="matrix(1,0,0,-1,51.09375,231.05406)"
         style="font-variant:normal;font-weight:normal;font-size:10px;font-family:Arial;-inkscape-font-specification:ArialMT;writing-mode:lr-tb;fill:#262626;fill-opacity:1;fill-rule:nonzero;stroke:none"
         id="text3549"><tspan
           x="0 5.5599999 8.3400002"
           y="0"
           sodipodi:role="line"
           id="tspan3551">0.6</tspan></text>
</g><g
       id="g3553"><g
         id="g3555"
         clip-path="url(#clipPath3557)"><path
           d="m 72,295.02 446.4,0"
           style="fill:none;stroke:#ffffff;stroke-width:1;stroke-linecap:round;stroke-linejoin:round;stroke-miterlimit:10;stroke-dasharray:none;stroke-opacity:1"
           id="path3561"
           inkscape:connector-curvature="0" /></g></g><g
       id="g3563"><path
         d="m 72,295.02 0,0"
         style="fill:#262626;fill-opacity:1;fill-rule:nonzero;stroke:#262626;stroke-width:1;stroke-linecap:butt;stroke-linejoin:round;stroke-miterlimit:10;stroke-dasharray:none;stroke-opacity:1"
         id="path3565"
         inkscape:connector-curvature="0" /><path
         d="m 518.4,295.02 0,0"
         style="fill:#262626;fill-opacity:1;fill-rule:nonzero;stroke:#262626;stroke-width:1;stroke-linecap:butt;stroke-linejoin:round;stroke-miterlimit:10;stroke-dasharray:none;stroke-opacity:1"
         id="path3567"
         inkscape:connector-curvature="0" /><text
         transform="matrix(1,0,0,-1,51.09375,292.43406)"
         style="font-variant:normal;font-weight:normal;font-size:10px;font-family:Arial;-inkscape-font-specification:ArialMT;writing-mode:lr-tb;fill:#262626;fill-opacity:1;fill-rule:nonzero;stroke:none"
         id="text3569"><tspan
           x="0 5.5599999 8.3400002"
           y="0"
           sodipodi:role="line"
           id="tspan3571">0.8</tspan></text>
</g><g
       id="g3573"><g
         id="g3575"
         clip-path="url(#clipPath3577)"><path
           d="m 72,356.4 446.4,0"
           style="fill:none;stroke:#ffffff;stroke-width:1;stroke-linecap:round;stroke-linejoin:round;stroke-miterlimit:10;stroke-dasharray:none;stroke-opacity:1"
           id="path3581"
           inkscape:connector-curvature="0" /></g></g><g
       id="g3583"><path
         d="m 72,356.4 0,0"
         style="fill:#262626;fill-opacity:1;fill-rule:nonzero;stroke:#262626;stroke-width:1;stroke-linecap:butt;stroke-linejoin:round;stroke-miterlimit:10;stroke-dasharray:none;stroke-opacity:1"
         id="path3585"
         inkscape:connector-curvature="0" /><path
         d="m 518.4,356.4 0,0"
         style="fill:#262626;fill-opacity:1;fill-rule:nonzero;stroke:#262626;stroke-width:1;stroke-linecap:butt;stroke-linejoin:round;stroke-miterlimit:10;stroke-dasharray:none;stroke-opacity:1"
         id="path3587"
         inkscape:connector-curvature="0" /><text
         transform="matrix(1,0,0,-1,51.09375,353.81406)"
         style="font-variant:normal;font-weight:normal;font-size:10px;font-family:Arial;-inkscape-font-specification:ArialMT;writing-mode:lr-tb;fill:#262626;fill-opacity:1;fill-rule:nonzero;stroke:none"
         id="text3589"><tspan
           x="0 5.5599999 8.3400002"
           y="0"
           sodipodi:role="line"
           id="tspan3591">1.0</tspan></text>
<text
         transform="matrix(0,1,1,0,43.90625,195.91875)"
         style="font-variant:normal;font-weight:normal;font-size:11px;font-family:Arial;-inkscape-font-specification:ArialMT;writing-mode:lr-tb;fill:#262626;fill-opacity:1;fill-rule:nonzero;stroke:none"
         id="text3593"><tspan
           x="0 6.7210002"
           y="0"
           sodipodi:role="line"
           id="tspan3595">TE</tspan></text>
</g><g
       id="g3597"><g
         id="g3599"
         clip-path="url(#clipPath3601)"><path
           d="m 72,324.08957 4.509091,-24.47896 4.509091,-12.49421 4.509091,-1.32672 4.509091,-12.17749 4.509091,-39.80769 4.50909,-3.72393 4.509095,-74.95725 4.50909,-1.83619 4.50909,-2.66419 4.50909,-10.44964 4.50909,-10.08075 4.50909,-10.51899 4.50909,-1.83035 4.50909,-9.26255 4.50909,-3.46767 4.50909,-3.7718 4.50909,-3.370988 4.5091,-1.452864 4.50909,-1.439975 4.50909,-1.369081 4.50909,-1.289287 4.50909,-18.957827 4.50909,-0.711701 4.50909,-1.513017 4.50909,-0.97809 4.50909,-0.763568 4.50909,-2.432796 4.50909,-0.255954 4.5091,-1.120492 4.50909,-0.14854 4.50909,-0.262399 4.50909,-0.684387 4.50909,-2.031678 4.50909,-1.774803 4.50909,-2.775604 4.50909,-0.868527 4.50909,-0.259637 4.50909,-0.194882 4.50909,-0.263013 4.5091,-0.783516 4.50909,-1.596187 4.50909,-0.09882 4.50909,-0.0135 4.50909,-0.122453 4.50909,-0.165419 4.50909,-0.03253 4.50909,-0.03253 4.50909,-0.07642 4.50909,-0.482447 4.50909,-0.04511 4.5091,-0.152836 4.50909,-0.01933 4.50909,-0.04634 4.50909,-0.10496 4.50909,-0.09299 4.50909,-0.02793 4.50909,-0.03806 4.50909,-0.09146 4.50909,-0.03437 4.50909,-0.02179 4.5091,-0.362756 4.50909,-0.08348 4.50909,-0.0074 4.50909,-0.08256 4.50909,-0.01289 4.50909,-6.14e-4 4.50909,-0.195188 4.50909,-0.01504 4.50909,-0.15253 4.50909,-0.0089 4.5091,-0.05739 4.50909,-0.0068 4.50909,-0.08501 4.50909,-0.361221 4.50909,-0.313959 4.50909,-0.06537 4.50909,-0.02486 4.50909,-0.48214 4.50909,-0.100049 4.50909,-0.04573 4.50909,-0.05831 4.50909,-0.115088 4.50909,-0.08163 4.5091,-0.02425 4.50909,0 4.50909,0 4.50909,0 4.50909,0 4.50909,0 4.50909,0 4.50909,0 4.50909,0 4.5091,0 4.50909,0 4.50909,0 4.50909,0 4.50909,0 4.50909,0 4.50909,0"
           style="fill:none;stroke:#003fff;stroke-width:1.75;stroke-linecap:round;stroke-linejoin:round;stroke-miterlimit:10;stroke-dasharray:none;stroke-opacity:1"
           id="path3605"
           inkscape:connector-curvature="0" /></g></g><g
       id="g3607"><g
         id="g3609"
         clip-path="url(#clipPath3611)"><path
           d="m 72,326.11541 4.509091,-28.06539 4.509091,-14.06001 4.509091,-1.40775 4.509091,-14.02655 4.509091,-51.07584 4.50909,-0.38454 4.509095,-84.60466 4.50909,-3.47748 4.50909,-9.87881 4.50909,-8.88751 4.50909,-2.58717 4.50909,-3.98878 4.50909,-6.935327 4.50909,-14.496115 4.50909,-1.378595 4.50909,-3.254367 4.50909,-7.198953 4.5091,-2.807522 4.50909,-0.123067 4.50909,-0.86914 4.50909,-0.07703 4.50909,-0.02179 4.50909,-3.028796 4.50909,-0.774923 4.50909,-0.160815 4.50909,-0.681318 4.50909,-1.750251 4.50909,-0.338818 4.5091,-0.618403 4.50909,-0.637738 4.50909,-0.618404 4.50909,-1.14842 4.50909,-0.03713 4.50909,-0.26823 4.50909,-0.141481 4.50909,-1.283149 4.50909,-0.01995 4.50909,-0.0037 4.50909,-0.487051 4.5091,-0.04941 4.50909,-0.504851 4.50909,-0.09882 4.50909,-0.306593 4.50909,-0.217592 4.50909,-0.06752 4.50909,-0.06905 4.50909,-0.03928 4.50909,-0.03345 4.50909,-0.442243 4.50909,-0.09391 4.5091,-0.11877 4.50909,-0.0488 4.50909,-0.01719 4.50909,-0.0098 4.50909,-0.0031 4.50909,-0.579734 4.50909,-0.0031 4.50909,-0.09913 4.50909,-0.184754 4.50909,-0.02363 4.5091,-0.08747 4.50909,-0.07366 4.50909,-0.01074 4.50909,-0.01381 4.50909,-0.03959 4.50909,-0.08409 4.50909,-0.04665 4.50909,-0.02148 4.50909,-0.0712 4.50909,-0.05524 4.5091,-0.01504 4.50909,-0.08624 4.50909,-0.07519 4.50909,-0.0034 4.50909,-0.04788 4.50909,-0.157747 4.50909,-0.27222 4.50909,-0.314266 4.50909,-0.09483 4.50909,-0.251044 4.50909,-0.0933 4.50909,-0.0012 4.50909,-0.05156 4.5091,-0.03192 4.50909,0 4.50909,0 4.50909,0 4.50909,0 4.50909,0 4.50909,0 4.50909,0 4.50909,0 4.5091,0 4.50909,0 4.50909,0 4.50909,0 4.50909,0 4.50909,0 4.50909,0"
           style="fill:none;stroke:#03ed3a;stroke-width:1.75;stroke-linecap:round;stroke-linejoin:round;stroke-miterlimit:10;stroke-dasharray:none;stroke-opacity:1"
           id="path3615"
           inkscape:connector-curvature="0" /></g></g><g
       id="g3617"><g
         id="g3619"
         clip-path="url(#clipPath3621)"><path
           d="m 72,139.87161 4.509091,0 4.509091,-1.75853 4.509091,0 4.509091,-1.89388 4.509091,0 4.50909,-30.44755 4.509095,-56.27165 4.50909,0 4.50909,0 4.50909,0 4.50909,0 4.50909,0 4.50909,0 4.50909,0 4.50909,0 4.50909,0 4.50909,0 4.5091,0 4.50909,0 4.50909,0 4.50909,0 4.50909,0 4.50909,0 4.50909,0 4.50909,0 4.50909,0 4.50909,0 4.50909,0 4.5091,0 4.50909,0 4.50909,0 4.50909,0 4.50909,0 4.50909,0 4.50909,0 4.50909,0 4.50909,0 4.50909,0 4.50909,0 4.5091,0 4.50909,0 4.50909,0 4.50909,0 4.50909,0 4.50909,0 4.50909,0 4.50909,0 4.50909,0 4.50909,0 4.50909,0 4.5091,0 4.50909,0 4.50909,0 4.50909,0 4.50909,0 4.50909,0 4.50909,0 4.50909,0 4.50909,0 4.50909,0 4.5091,0 4.50909,0 4.50909,0 4.50909,0 4.50909,0 4.50909,0 4.50909,0 4.50909,0 4.50909,0 4.50909,0 4.5091,0 4.50909,0 4.50909,0 4.50909,0 4.50909,0 4.50909,0 4.50909,0 4.50909,0 4.50909,0 4.50909,0 4.50909,0 4.50909,0 4.50909,0 4.5091,0 4.50909,0 4.50909,0 4.50909,0 4.50909,0 4.50909,0 4.50909,0 4.50909,0 4.50909,0 4.5091,0 4.50909,0 4.50909,0 4.50909,0 4.50909,0 4.50909,0 4.50909,0"
           style="fill:none;stroke:#e8000b;stroke-width:1.75;stroke-linecap:round;stroke-linejoin:round;stroke-miterlimit:10;stroke-dasharray:none;stroke-opacity:1"
           id="path3625"
           inkscape:connector-curvature="0" /></g></g><g
       id="g3627"><text
         transform="matrix(1,0,0,-1,175.34844,361.4)"
         style="font-variant:normal;font-weight:normal;font-size:12px;font-family:Arial;-inkscape-font-specification:ArialMT;writing-mode:lr-tb;fill:#262626;fill-opacity:1;fill-rule:nonzero;stroke:none"
         id="text3629"><tspan
           x="0 7.3319998 15.336 18.672001 24.672001 30.672001 34.007999 41.34 44.004002 54 60.672001 66.671997 73.344002 77.339996 80.003998 86.676003 92.676003 96.012001 99.348 106.02 108.684 114.684 118.02 124.692 128.688 134.688 137.35201 144.024 150.696 157.368 160.70399 167.37601 174.384 181.056 184.392 187.728 191.064 197.73599 204.408 207.744 213.744 217.08 223.752 230.424 236.424"
           y="0"
           sodipodi:role="line"
           id="tspan3631">TE vs Timeseries [historylength=2] [22 steps]</tspan></text>
<path
         d="m 357.39928,341.29048 20,0"
         style="fill:none;stroke:#003fff;stroke-width:1.75;stroke-linecap:round;stroke-linejoin:round;stroke-miterlimit:10;stroke-dasharray:none;stroke-opacity:1"
         id="path3633"
         inkscape:connector-curvature="0" /><text
         transform="scale(1,-1)"
         style="font-variant:normal;font-weight:normal;font-size:10px;font-family:Arial;-inkscape-font-specification:ArialMT;writing-mode:lr-tb;fill:#262626;fill-opacity:1;fill-rule:nonzero;stroke:none"
         id="text3635"
         x="385.39929"
         y="-337.7905"><tspan
           sodipodi:role="line"
           id="tspan3637"
           x="385.39929"
           y="-337.7905">all trajectories</tspan></text>
<path
         d="m 357.39928,327.11861 20,0"
         style="fill:none;stroke:#03ed3a;stroke-width:1.75;stroke-linecap:round;stroke-linejoin:round;stroke-miterlimit:10;stroke-dasharray:none;stroke-opacity:1"
         id="path3639"
         inkscape:connector-curvature="0" /><text
         transform="scale(1,-1)"
         style="font-variant:normal;font-weight:normal;font-size:10px;font-family:Arial;-inkscape-font-specification:ArialMT;writing-mode:lr-tb;fill:#262626;fill-opacity:1;fill-rule:nonzero;stroke:none"
         id="text3641"
         x="385.39929"
         y="-323.61862"><tspan
           sodipodi:role="line"
           id="tspan3643"
           x="385.39929"
           y="-323.61862">primary attractor trajectories</tspan></text>
<path
         d="m 357.39928,312.94673 20,0"
         style="fill:none;stroke:#e8000b;stroke-width:1.75;stroke-linecap:round;stroke-linejoin:round;stroke-miterlimit:10;stroke-dasharray:none;stroke-opacity:1"
         id="path3645"
         inkscape:connector-curvature="0" /><text
         transform="scale(1,-1)"
         style="font-variant:normal;font-weight:normal;font-size:10px;font-family:Arial;-inkscape-font-specification:ArialMT;writing-mode:lr-tb;fill:#262626;fill-opacity:1;fill-rule:nonzero;stroke:none"
         id="text3647"
         x="385.39929"
         y="-309.44675"><tspan
           sodipodi:role="line"
           id="tspan3649"
           x="385.39929"
           y="-309.44675">one trajectory (biological)</tspan></text>
</g></g></svg>